<?xml version="1.0" encoding="UTF-8"?>
<svg width="361px" height="40px" viewBox="0 0 361 40" version="1.1" xmlns="http://www.w3.org/2000/svg" xmlns:xlink="http://www.w3.org/1999/xlink">
    <!-- Generator: Sketch 48.2 (47327) - http://www.bohemiancoding.com/sketch -->
    <title>Group 39</title>
    <desc>Created with Sketch.</desc>
    <defs>
        <linearGradient x1="75.5932687%" y1="90.0714565%" x2="40.973369%" y2="35.8672351%" id="linearGradient-1">
            <stop stop-color="#F89F21" offset="0%"></stop>
            <stop stop-color="#F79A23" offset="25.02%"></stop>
            <stop stop-color="#F78E22" offset="53.31%"></stop>
            <stop stop-color="#F68721" offset="61.96%"></stop>
            <stop stop-color="#F48220" offset="72.32%"></stop>
            <stop stop-color="#F27623" offset="100%"></stop>
        </linearGradient>
        <linearGradient x1="70.1244483%" y1="89.3345243%" x2="19.5268262%" y2="-9.56150359%" id="linearGradient-2">
            <stop stop-color="#F68721" stop-opacity="0" offset="0%"></stop>
            <stop stop-color="#E27027" stop-opacity="0.2704" offset="35.87%"></stop>
            <stop stop-color="#D4612C" stop-opacity="0.5299" offset="70.3%"></stop>
            <stop stop-color="#D15D2D" stop-opacity="0.74" offset="98.16%"></stop>
        </linearGradient>
    </defs>
    <g id="Landing-Copy" stroke="none" stroke-width="1" fill="none" fill-rule="evenodd" transform="translate(-100.000000, -2165.000000)">
        <g id="Section" transform="translate(0.000000, 1786.000000)">
            <g id="Group-13" transform="translate(100.000000, 99.000000)">
                <g id="Group-7" transform="translate(0.000000, 251.000000)">
                    <g id="Group-39" transform="translate(0.000000, 29.000000)">
                        <g id="Group-5" transform="translate(0.000000, 7.000000)">
                            <g id="Group-6">
                                <g id="Visa">
                                    <rect id="Rectangle-11" stroke="#E8E8E8" stroke-width="0.8125" x="0.40625" y="0.40625" width="34.8574029" height="25.1875" rx="3.25"></rect>
                                    <g id="visa" transform="translate(3.242718, 8.125000)" fill-rule="nonzero">
                                        <polygon id="polygon9" fill="#00579F" points="12.6172034 9.57170859 10.2693831 9.57170859 11.7378782 0.286842561 14.0855701 0.286842561"></polygon>
                                        <path d="M21.1282607,0.513831042 C20.6651673,0.325964925 19.930663,0.118537625 19.0224506,0.118537625 C16.7039026,0.118537625 15.0712001,1.38279389 15.0611859,3.19029962 C15.0419278,4.52387336 16.2301531,5.26457262 17.1188507,5.70922848 C18.0271915,6.16359929 18.3359632,6.46016782 18.3359632,6.86517618 C18.3267193,7.48719552 17.6019725,7.77391781 16.9260128,7.77391781 C15.9886564,7.77391781 15.486405,7.62609304 14.7231419,7.28003078 L14.413985,7.13168088 L14.0854417,9.21593139 C14.6360952,9.47245857 15.6506124,9.70010347 16.7039026,9.71008098 C19.1674,9.71008098 20.7712153,8.4653859 20.7902167,6.53920025 C20.7995889,5.48224 20.1721597,4.67235455 18.8194701,4.01055644 C17.9983044,3.58572432 17.4954109,3.2992646 17.4954109,2.86458625 C17.50504,2.46942411 17.9207584,2.06467831 18.8477154,2.06467831 C19.6109784,2.04485457 20.1717746,2.23245812 20.5966085,2.42019295 L20.8089612,2.51878656 L21.1282607,0.513831042 Z" id="path11" fill="#00579F"></path>
                                        <path d="M24.2487163,6.2824105 C24.4420677,5.74900726 25.1860727,3.6845805 25.1860727,3.6845805 C25.1763153,3.70440425 25.379039,3.14133103 25.4949728,2.79566262 L25.6590519,3.59570184 C25.6590519,3.59570184 26.1036574,5.81819345 26.2002047,6.2824105 C25.8332736,6.2824105 24.7124516,6.2824105 24.2487163,6.2824105 Z M27.146805,0.286842561 L25.3307653,0.286842561 C24.7707395,0.286842561 24.3452637,0.454622364 24.1036386,1.0572118 L20.6162517,9.57157731 L23.0797491,9.57157731 C23.0797491,9.57157731 23.4853249,8.42560712 23.5724999,8.17879489 C23.8427554,8.17879489 26.2392345,8.17879489 26.5869076,8.17879489 C26.654311,8.50477083 26.8670489,9.57157731 26.8670489,9.57157731 L29.0409043,9.57157731 L27.146805,0.286842561 Z" id="path13" fill="#00579F"></path>
                                        <path d="M8.30839404,0.286842561 L6.00910417,6.61823267 L5.75785004,5.33415266 C5.33275937,3.85249158 3.99958465,2.2426982 2.51183151,1.44226513 L4.61789835,9.56186236 L7.10065381,9.56186236 L10.7910211,0.286842561 L8.30839404,0.286842561 Z" id="path15" fill="#00579F"></path>
                                        <path d="M3.87402178,0.286842561 L0.0966078225,0.286842561 L0.0579632163,0.474446112 C3.00458234,1.24494663 4.95607075,3.10220866 5.75785004,5.33454651 L4.93668426,1.0673206 C4.80149233,0.474314829 4.38603072,0.306403743 3.87402178,0.286842561 Z" id="path17" fill="#FAA61A"></path>
                                    </g>
                                </g>
                                <g id="MasterCard" transform="translate(43.776699, 0.000000)">
                                    <rect id="Rectangle-11" stroke="#E8E8E8" stroke-width="0.8125" x="0.40625" y="0.40625" width="34.8574029" height="25.1875" rx="3.25"></rect>
                                    <g id="mastercard" transform="translate(4.864078, 3.250000)" fill-rule="nonzero">
                                        <g id="Group" transform="translate(26.185188, 13.869778) scale(-1, 1) rotate(-180.000000) translate(-26.185188, -13.869778) translate(24.563829, 13.057278)" fill="#F79410">
                                            <path d="M1.0093202,0 L1.0093202,0.308533923 L0.929079241,0.308533923 L0.836221782,0.0966065235 L0.743868985,0.308533923 L0.663123369,0.308533923 L0.663123369,0 L0.72014996,0 L0.72014996,0.232664926 L0.806951497,0.031864979 L0.865996728,0.031864979 L0.952798265,0.233170719 L0.952798265,0 L1.0093202,0 Z M0.500118157,0 L0.500118157,0.255931418 L0.603068817,0.255931418 L0.603068817,0.30802813 L0.340645566,0.30802813 L0.340645566,0.255931418 L0.443596226,0.255931418 L0.443596226,0 L0.500118157,0 Z" id="Shape"></path>
                                        </g>
                                        <polygon id="Shape" fill="#FF5F00" points="16.4488942 16.0016418 9.50396375 16.0016418 9.50396375 3.56623517 16.4488942 3.56623517"></polygon>
                                        <g id="Group" transform="translate(6.597956, 9.574882) scale(-1, 1) rotate(-180.000000) translate(-6.597956, -9.574882) translate(0.112519, 1.449882)" fill="#EB001B">
                                            <path d="M9.83635298,7.91694882 C9.83635298,10.4395283 11.0217995,12.6865698 12.8678462,14.1346521 C11.5178804,15.1935623 9.81414793,15.8255899 7.96255003,15.8255899 C3.57907242,15.8255899 0.025760669,12.2848276 0.025760669,7.91694882 C0.025760669,3.54907007 3.57907242,0.00830776452 7.96255003,0.00830776452 C9.81414793,0.00830776452 11.5178804,0.640335344 12.8678462,1.69924551 C11.0217995,3.1473278 9.83635298,5.39436937 9.83635298,7.91694882" id="Shape"></path>
                                        </g>
                                        <g id="Group" transform="translate(19.990340, 9.702834) scale(-1, 1) rotate(-180.000000) translate(-19.990340, -9.702834) translate(12.694223, 1.577834)" fill="#F79E1B">
                                            <path d="M13.1211625,8.04490157 C13.1211625,3.67702283 9.5678508,0.13626052 5.18437319,0.13626052 C3.33277529,0.13626052 1.6290428,0.7682881 0.278572374,1.82719827 C2.12512367,3.27528055 3.31057024,5.52232212 3.31057024,8.04490157 C3.31057024,10.567481 2.12512367,12.8145226 0.278572374,14.2626049 C1.6290428,15.321515 3.33277529,15.9535426 5.18437319,15.9535426 C9.5678508,15.9535426 13.1211625,12.4127803 13.1211625,8.04490157" id="Shape"></path>
                                        </g>
                                    </g>
                                </g>
                                <g id="Discover" transform="translate(87.553398, 0.000000)">
                                    <rect id="Rectangle-11" stroke="#E8E8E8" stroke-width="0.8125" x="0.40625" y="0.40625" width="34.8574029" height="25.1875" rx="3.25"></rect>
                                    <g transform="translate(3.242718, 9.750000)" fill-rule="nonzero">
                                        <path d="M1.36152518,0.167972426 L0.0436664303,0.167972426 L0.0436664303,4.65655699 L1.35454149,4.65655699 C2.0515871,4.65655699 2.55492725,4.49618382 2.99673742,4.13837316 C3.52176376,3.71467831 3.8322806,3.07598162 3.8322806,2.41534743 C3.83242762,1.09085294 2.81751393,0.167972426 1.36152518,0.167972426 Z M2.41032814,3.53989522 C2.12818713,3.78830515 1.7618743,3.89663051 1.18178709,3.89663051 L0.940886601,3.89663051 L0.940886601,0.928544118 L1.18178709,0.928544118 C1.7618743,0.928544118 2.11385219,1.02970037 2.41032814,1.29151654 C2.72084498,1.56107537 2.90756675,1.97896324 2.90756675,2.40882353 C2.90756675,2.83983088 2.72084498,3.27040809 2.41032814,3.53989522 Z" id="Shape" fill="#231F20"></path>
                                        <rect id="Rectangle-path" fill="#231F20" x="4.24549441" y="0.167972426" width="1" height="4.48858456"></rect>
                                        <path d="M7.33853322,1.89049632 C6.79983356,1.69614154 6.64163464,1.56788603 6.64163464,1.32542647 C6.64163464,1.04260478 6.9234816,0.827889706 7.31037793,0.827889706 C7.57943371,0.827889706 7.80041232,0.935641544 8.03432912,1.19136397 L8.50407405,0.591523897 C8.11805987,0.262174632 7.65618077,0.09384375 7.15159091,0.09384375 C6.33721934,0.09384375 5.71603864,0.645363971 5.71603864,1.37998346 C5.71603864,1.99839154 6.00523685,2.31497978 6.84842533,2.61084926 C7.19996214,2.73172059 7.37881808,2.81222978 7.46909144,2.86642831 C7.64846196,2.98063235 7.73829425,3.14243934 7.73829425,3.33084375 C7.73829425,3.69453309 7.4418183,3.96394853 7.04124864,3.96394853 C6.61303827,3.96394853 6.26811758,3.75511213 6.06147392,3.36532721 L5.48153374,3.91003676 C5.89518862,4.50213419 6.39191265,4.76459559 7.07506439,4.76459559 C8.00801164,4.76459559 8.66249351,4.15966544 8.66249351,3.29076838 C8.66234648,2.57758456 8.35984251,2.2546875 7.33853322,1.89049632 Z" id="Shape" fill="#231F20"></path>
                                        <path d="M8.94566369,2.41534743 C8.94566369,3.73468015 10.0080665,4.75771324 11.3751051,4.75771324 C11.7616339,4.75771324 12.0925872,4.68358456 12.5007286,4.49618382 L12.5007286,3.46555147 C12.141767,3.81590625 11.823899,3.95713787 11.4169337,3.95713787 C10.5127298,3.95713787 9.87103915,3.31779596 9.87103915,2.40882353 C9.87103915,1.54709559 10.5330928,0.867176471 11.3752521,0.867176471 C11.8034625,0.867176471 12.1275791,1.01622243 12.5008756,1.37224081 L12.5008756,0.342038603 C12.1067751,0.147038603 11.7828055,0.0663143382 11.3964237,0.0663143382 C10.0360012,0.0665294118 8.94566369,1.11035294 8.94566369,2.41534743 Z" id="Shape" fill="#231F20"></path>
                                        <polygon id="Shape" fill="#231F20" points="19.6190184 3.18294485 18.39158 0.167972426 17.4107761 0.167972426 19.3641505 4.77176471 19.8472012 4.77176471 21.8355675 0.167972426 20.8623354 0.167972426"></polygon>
                                        <polygon id="Shape" fill="#231F20" points="22.2415036 4.65655699 24.7876094 4.65655699 24.7876094 3.8967739 23.1385768 3.8967739 23.1385768 2.68519301 24.7268145 2.68519301 24.7268145 1.9248364 23.1385768 1.9248364 23.1385768 0.928544118 24.7876094 0.928544118 24.7876094 0.167972426 22.2415036 0.167972426"></polygon>
                                        <path d="M28.3422332,1.49311213 C28.3422332,0.652748162 27.7486932,0.167972426 26.713343,0.167972426 L25.3821785,0.167972426 L25.3821785,4.65655699 L26.2788841,4.65655699 L26.2788841,2.85345221 L26.3959895,2.85345221 L27.6385715,4.65662868 L28.7426558,4.65662868 L27.2937978,2.76555882 C27.9698923,2.63149632 28.3422332,2.18041544 28.3422332,1.49311213 Z M26.5411767,2.23447059 L26.2789576,2.23447059 L26.2789576,0.874990809 L26.5553647,0.874990809 C27.1145008,0.874990809 27.418475,1.10347059 27.418475,1.54028493 C27.418475,1.99158088 27.1145743,2.23447059 26.5411767,2.23447059 Z" id="Shape" fill="#231F20"></path>
                                        <g id="MarkingBase_1_" transform="translate(12.791177, 0.000000)">
                                            <ellipse id="Oval" fill="url(#linearGradient-1)" cx="2.45112758" cy="2.42789338" rx="2.44848113" ry="2.38781801"></ellipse>
                                            <ellipse id="Oval" fill="url(#linearGradient-2)" opacity="0.65" cx="2.45112758" cy="2.42789338" rx="2.44848113" ry="2.38781801"></ellipse>
                                        </g>
                                        <g id="Registered_1_" transform="translate(28.375828, 0.000000)" fill="#231F20">
                                            <path d="M0.539508303,0.346063602 C0.539508303,0.265165617 0.483932846,0.220959068 0.386308234,0.220959068 L0.256411631,0.220959068 L0.256411631,0.626406801 L0.352933555,0.626406801 L0.352933555,0.469105164 L0.466142819,0.626406801 L0.58398337,0.626406801 L0.450925729,0.459232368 C0.508118461,0.443907431 0.539508303,0.402353275 0.539508303,0.346063602 Z M0.382414073,0.457947103 L0.353007068,0.457947103 L0.353007068,0.295447103 L0.384268569,0.295447103 C0.470237698,0.295447103 0.51514299,0.321871704 0.51514299,0.375398458 C0.51514299,0.430167395 0.469707842,0.457947103 0.382414073,0.457947103 Z" id="Shape"></path>
                                            <path d="M0.405862561,0.0695516373 C0.209437138,0.0695516373 0.0535171065,0.226632242 0.0535171065,0.422982997 C0.0535171065,0.619260076 0.211201438,0.776561713 0.405862561,0.776561713 C0.597215622,0.776561713 0.754017803,0.617491814 0.754017803,0.422982997 C0.754017803,0.229284635 0.59714211,0.0695516373 0.405862561,0.0695516373 Z M0.404318799,0.713346348 C0.249721993,0.713346348 0.123280477,0.584410579 0.123280477,0.423498741 C0.123280477,0.262071159 0.248104717,0.133209068 0.404318799,0.133209068 C0.55818048,0.133209068 0.68359282,0.265018262 0.68359282,0.423498741 C0.68359282,0.583010705 0.558327505,0.713346348 0.404318799,0.713346348 Z" id="Shape"></path>
                                        </g>
                                    </g>
                                </g>
                                <g id="Amex" transform="translate(131.330097, 0.000000)">
                                    <rect id="Rectangle-11" stroke="#E8E8E8" stroke-width="0.8125" x="0.40625" y="0.40625" width="34.8574029" height="25.1875" rx="3.25"></rect>
                                    <path d="M7.49179779,12.5357143 L9.28088383,12.5357143 L8.38634081,10.2142857 L7.49179779,12.5357143 Z M32.4271845,8.125 L27.8426515,8.125 L26.7244727,9.40178571 L25.7181118,8.125 L15.9899565,8.125 L15.0954135,10.2142857 L14.2008704,8.125 L10.2872447,8.125 L10.2872447,9.05357143 L9.83997322,8.125 L6.48543689,8.125 L3.24271845,16.25 L7.15634416,16.25 L7.60361567,14.9732143 L8.72179444,14.9732143 L9.16906595,16.25 L13.5299632,16.25 L13.5299632,15.3214286 L13.8654168,16.25 L16.1017744,16.25 L16.437228,15.2053571 L16.437228,16.25 L25.3826582,16.25 L26.500837,14.9732143 L27.5071979,16.25 L32.0917308,16.25 L29.184466,12.1875 L32.4271845,8.125 Z M18.8972213,15.0892857 L17.6672246,15.0892857 L17.6672246,10.5625 L15.7663207,15.0892857 L14.6481419,15.0892857 L12.747238,10.5625 L12.747238,15.0892857 L10.1754268,15.0892857 L9.72815534,13.8125 L7.04452628,13.8125 L6.59725477,15.0892857 L5.14362236,15.0892857 L7.49179779,9.28571429 L9.39270171,9.28571429 L11.5172414,14.7410714 L11.5172414,9.28571429 L13.6417811,9.28571429 L15.3190492,13.2321429 L16.8844995,9.28571429 L19.0090392,9.28571429 L19.0090392,15.0892857 L18.8972213,15.0892857 Z M29.9671912,15.0892857 L28.289923,15.0892857 L26.8362906,13.1160714 L25.1590224,15.0892857 L20.1272179,15.0892857 L20.1272179,9.28571429 L25.2708403,9.28571429 L26.8362906,11.1428571 L28.5135588,9.28571429 L30.079009,9.28571429 L27.6190157,12.1875 L29.9671912,15.0892857 Z M21.3572146,10.4464286 L21.3572146,11.4910714 L24.1526615,11.4910714 L24.1526615,12.6517857 L21.3572146,12.6517857 L21.3572146,13.8125 L24.4881152,13.8125 L25.9417476,12.0714286 L24.599933,10.4464286 L21.3572146,10.4464286 Z" id="Shape" fill="#2877CB"></path>
                                </g>
                            </g>
                        </g>
                        <rect id="Rectangle-19" stroke="#E2E2E2" x="183.5" y="0.5" width="1" height="39"></rect>
                        <rect id="Rectangle-19" stroke="#E2E2E2" x="296.5" y="0.5" width="1" height="39"></rect>
                        <g id="stripe" transform="translate(313.000000, 10.000000)" fill="#6772E5">
                            <path d="M48,10.32 C48,6.90666667 46.3466667,4.21333333 43.1866667,4.21333333 C40.0133333,4.21333333 38.0933333,6.90666667 38.0933333,10.2933333 C38.0933333,14.3066667 40.36,16.3333333 43.6133333,16.3333333 C45.2,16.3333333 46.4,15.9733333 47.3066667,15.4666667 L47.3066667,12.8 C46.4,13.2533333 45.36,13.5333333 44.04,13.5333333 C42.7466667,13.5333333 41.6,13.08 41.4533333,11.5066667 L47.9733333,11.5066667 C47.9733333,11.3333333 48,10.64 48,10.32 Z M41.4133333,9.05333333 C41.4133333,7.54666667 42.3333333,6.92 43.1733333,6.92 C43.9866667,6.92 44.8533333,7.54666667 44.8533333,9.05333333 L41.4133333,9.05333333 Z" id="Shape"></path>
                            <path d="M32.9466667,4.21333333 C31.64,4.21333333 30.8,4.82666667 30.3333333,5.25333333 L30.16,4.42666667 L27.2266667,4.42666667 L27.2266667,19.9733333 L30.56,19.2666667 L30.5733333,15.4933333 C31.0533333,15.84 31.76,16.3333333 32.9333333,16.3333333 C35.32,16.3333333 37.4933333,14.4133333 37.4933333,10.1866667 C37.48,6.32 35.28,4.21333333 32.9466667,4.21333333 Z M32.1466667,13.4 C31.36,13.4 30.8933333,13.12 30.5733333,12.7733333 L30.56,7.82666667 C30.9066667,7.44 31.3866667,7.17333333 32.1466667,7.17333333 C33.36,7.17333333 34.2,8.53333333 34.2,10.28 C34.2,12.0666667 33.3733333,13.4 32.1466667,13.4 Z" id="Shape"></path>
                            <polygon id="Shape" points="22.64 3.42666667 25.9866667 2.70666667 25.9866667 0 22.64 0.706666667"></polygon>
                            <rect id="Rectangle-path" x="22.64" y="4.44" width="3.34666667" height="11.6666667"></rect>
                            <path d="M19.0533333,5.42666667 L18.84,4.44 L15.96,4.44 L15.96,16.1066667 L19.2933333,16.1066667 L19.2933333,8.2 C20.08,7.17333333 21.4133333,7.36 21.8266667,7.50666667 L21.8266667,4.44 C21.4,4.28 19.84,3.98666667 19.0533333,5.42666667 Z" id="Shape"></path>
                            <path d="M12.3866667,1.54666667 L9.13333333,2.24 L9.12,12.92 C9.12,14.8933333 10.6,16.3466667 12.5733333,16.3466667 C13.6666667,16.3466667 14.4666667,16.1466667 14.9066667,15.9066667 L14.9066667,13.2 C14.48,13.3733333 12.3733333,13.9866667 12.3733333,12.0133333 L12.3733333,7.28 L14.9066667,7.28 L14.9066667,4.44 L12.3733333,4.44 L12.3866667,1.54666667 Z" id="Shape"></path>
                            <path d="M3.37333333,7.82666667 C3.37333333,7.30666667 3.8,7.10666667 4.50666667,7.10666667 C5.52,7.10666667 6.8,7.41333333 7.81333333,7.96 L7.81333333,4.82666667 C6.70666667,4.38666667 5.61333333,4.21333333 4.50666667,4.21333333 C1.8,4.21333333 0,5.62666667 0,7.98666667 C0,11.6666667 5.06666667,11.08 5.06666667,12.6666667 C5.06666667,13.28 4.53333333,13.48 3.78666667,13.48 C2.68,13.48 1.26666667,13.0266667 0.146666667,12.4133333 L0.146666667,15.5866667 C1.38666667,16.12 2.64,16.3466667 3.78666667,16.3466667 C6.56,16.3466667 8.46666667,14.9733333 8.46666667,12.5866667 C8.45333333,8.61333333 3.37333333,9.32 3.37333333,7.82666667 Z" id="Shape"></path>
                        </g>
                        <g id="PayPal" transform="translate(200.000000, 10.000000)" fill-rule="nonzero">
                            <path d="M29.8135484,4.35419355 L25.4012903,4.35419355 C25.0993548,4.35419355 24.8425806,4.57354839 24.7954839,4.8716129 L23.0109677,16.1858065 C22.9754839,16.4090323 23.1483871,16.6103226 23.3748387,16.6103226 L25.4812903,16.6103226 C25.7832258,16.6103226 26.04,16.3909677 26.0870968,16.0922581 L26.5683871,13.0406452 C26.6148387,12.7419355 26.8722581,12.5225806 27.1735484,12.5225806 L28.5703226,12.5225806 C31.4767742,12.5225806 33.1541935,11.116129 33.5922581,8.32903226 C33.7896774,7.10967742 33.6006452,6.1516129 33.0296774,5.48064516 C32.4025806,4.74387097 31.2903226,4.35419355 29.8135484,4.35419355 Z M30.3225806,8.48645161 C30.0812903,10.0696774 28.8716129,10.0696774 27.7019355,10.0696774 L27.036129,10.0696774 L27.5032258,7.11290323 C27.5309677,6.93419355 27.6858065,6.80258065 27.8664516,6.80258065 L28.1716129,6.80258065 C28.9683871,6.80258065 29.72,6.80258065 30.1083871,7.25677419 C30.34,7.52774194 30.4109677,7.93032258 30.3225806,8.48645161 Z" id="Shape" fill="#253B80"></path>
                            <path d="M43.0025806,8.43548387 L40.8896774,8.43548387 C40.7096774,8.43548387 40.5541935,8.56709677 40.5264516,8.74580645 L40.4329032,9.33677419 L40.2851613,9.12258065 C39.8277419,8.45870968 38.8077419,8.23677419 37.7896774,8.23677419 C35.4548387,8.23677419 33.4606452,10.0051613 33.0722581,12.4858065 C32.8703226,13.7232258 33.1574194,14.9064516 33.8593548,15.7316129 C34.5032258,16.4903226 35.4245161,16.8064516 36.5206452,16.8064516 C38.4019355,16.8064516 39.4451613,15.5967742 39.4451613,15.5967742 L39.3509677,16.183871 C39.3154839,16.4083871 39.4883871,16.6096774 39.7135484,16.6096774 L41.6167742,16.6096774 C41.9193548,16.6096774 42.1748387,16.3903226 42.2225806,16.0916129 L43.3645161,8.86 C43.4006452,8.63741935 43.2283871,8.43548387 43.0025806,8.43548387 Z M40.0574194,12.5477419 C39.8535484,13.7548387 38.8954839,14.5651613 37.6735484,14.5651613 C37.06,14.5651613 36.5696774,14.3683871 36.2548387,13.9954839 C35.9425806,13.6251613 35.823871,13.0980645 35.9232258,12.5109677 C36.1135484,11.3141935 37.0877419,10.4774194 38.2909677,10.4774194 C38.8909677,10.4774194 39.3787097,10.6767742 39.7,11.0529032 C40.0219355,11.4329032 40.1496774,11.9632258 40.0574194,12.5477419 Z" id="Shape" fill="#253B80"></path>
                            <path d="M54.2554839,8.43548387 L52.1322581,8.43548387 C51.9296774,8.43548387 51.7393548,8.53612903 51.6245161,8.70451613 L48.696129,13.0180645 L47.4548387,8.87290323 C47.3767742,8.61354839 47.1374194,8.43548387 46.8664516,8.43548387 L44.78,8.43548387 C44.5264516,8.43548387 44.3503226,8.68322581 44.4309677,8.92193548 L46.7696774,15.7851613 L44.5709677,18.8890323 C44.3980645,19.1335484 44.5722581,19.4696774 44.8709677,19.4696774 L46.9916129,19.4696774 C47.1929032,19.4696774 47.3812903,19.3716129 47.4954839,19.2064516 L54.5574194,9.01290323 C54.7264516,8.76903226 54.5529032,8.43548387 54.2554839,8.43548387 Z" id="Shape" fill="#253B80"></path>
                            <path d="M61.2851613,4.35419355 L56.8722581,4.35419355 C56.5709677,4.35419355 56.3141935,4.57354839 56.2670968,4.8716129 L54.4825806,16.1858065 C54.4470968,16.4090323 54.62,16.6103226 54.8451613,16.6103226 L57.1096774,16.6103226 C57.32,16.6103226 57.5,16.4567742 57.5329032,16.2477419 L58.0393548,13.0406452 C58.0858065,12.7419355 58.3432258,12.5225806 58.6445161,12.5225806 L60.0406452,12.5225806 C62.9477419,12.5225806 64.6245161,11.116129 65.0632258,8.32903226 C65.2612903,7.10967742 65.0709677,6.1516129 64.5,5.48064516 C63.8735484,4.74387097 62.7619355,4.35419355 61.2851613,4.35419355 Z M61.7941935,8.48645161 C61.5535484,10.0696774 60.343871,10.0696774 59.1735484,10.0696774 L58.5083871,10.0696774 L58.976129,7.11290323 C59.003871,6.93419355 59.1574194,6.80258065 59.3387097,6.80258065 L59.643871,6.80258065 C60.44,6.80258065 61.1922581,6.80258065 61.5806452,7.25677419 C61.8122581,7.52774194 61.8825806,7.93032258 61.7941935,8.48645161 Z" id="Shape" fill="#179BD7"></path>
                            <path d="M74.4735484,8.43548387 L72.3619355,8.43548387 C72.1806452,8.43548387 72.0264516,8.56709677 71.9993548,8.74580645 L71.9058065,9.33677419 L71.7574194,9.12258065 C71.3,8.45870968 70.2806452,8.23677419 69.2625806,8.23677419 C66.9277419,8.23677419 64.9341935,10.0051613 64.5458065,12.4858065 C64.3445161,13.7232258 64.6303226,14.9064516 65.3322581,15.7316129 C65.9774194,16.4903226 66.8974194,16.8064516 67.9935484,16.8064516 C69.8748387,16.8064516 70.9180645,15.5967742 70.9180645,15.5967742 L70.823871,16.183871 C70.7883871,16.4083871 70.9612903,16.6096774 71.1877419,16.6096774 L73.0903226,16.6096774 C73.3916129,16.6096774 73.6483871,16.3903226 73.6954839,16.0916129 L74.8380645,8.86 C74.8729032,8.63741935 74.7,8.43548387 74.4735484,8.43548387 Z M71.5283871,12.5477419 C71.3258065,13.7548387 70.3664516,14.5651613 69.1445161,14.5651613 C68.5322581,14.5651613 68.0406452,14.3683871 67.7258065,13.9954839 C67.4135484,13.6251613 67.296129,13.0980645 67.3941935,12.5109677 C67.5858065,11.3141935 68.5587097,10.4774194 69.7619355,10.4774194 C70.3619355,10.4774194 70.8496774,10.6767742 71.1709677,11.0529032 C71.4941935,11.4329032 71.6219355,11.9632258 71.5283871,12.5477419 Z" id="Shape" fill="#179BD7"></path>
                            <path d="M76.9645161,4.66451613 L75.1535484,16.1858065 C75.1180645,16.4090323 75.2909677,16.6103226 75.516129,16.6103226 L77.3367742,16.6103226 C77.6393548,16.6103226 77.896129,16.3909677 77.9425806,16.0922581 L79.7283871,4.77870968 C79.763871,4.55548387 79.5909677,4.35354839 79.3658065,4.35354839 L77.3270968,4.35354839 C77.1470968,4.35419355 76.9922581,4.48580645 76.9645161,4.66451613 Z" id="Shape" fill="#179BD7"></path>
                            <path d="M4.68774194,18.8090323 L5.02516129,16.6658065 L4.27354839,16.6483871 L0.684516129,16.6483871 L3.17870968,0.833548387 C3.18645161,0.785806452 3.2116129,0.741290323 3.2483871,0.709677419 C3.28516129,0.678064516 3.33225806,0.660645161 3.38129032,0.660645161 L9.43290323,0.660645161 C11.4419355,0.660645161 12.8283871,1.07870968 13.5522581,1.90387097 C13.8916129,2.29096774 14.1077419,2.69548387 14.2122581,3.14064516 C14.3219355,3.60774194 14.323871,4.16580645 14.2167742,4.84645161 L14.2090323,4.89612903 L14.2090323,5.33225806 L14.5483871,5.52451613 C14.8341935,5.67612903 15.0612903,5.84967742 15.2354839,6.0483871 C15.5258065,6.37935484 15.7135484,6.8 15.7929032,7.29870968 C15.8748387,7.8116129 15.8477419,8.42193548 15.7135484,9.11290323 C15.5587097,9.90774194 15.3083871,10.6 14.9703226,11.1664516 C14.6593548,11.6883871 14.2632258,12.1212903 13.7929032,12.4567742 C13.343871,12.7754839 12.8103226,13.0174194 12.2070968,13.1722581 C11.6225806,13.3245161 10.956129,13.4012903 10.2251613,13.4012903 L9.75419355,13.4012903 C9.41741935,13.4012903 9.09032258,13.5225806 8.83354839,13.74 C8.57612903,13.9619355 8.40580645,14.2651613 8.35354839,14.5967742 L8.31806452,14.7896774 L7.72193548,18.5670968 L7.69483871,18.7058065 C7.68774194,18.7496774 7.67548387,18.7716129 7.65741935,18.7864516 C7.64129032,18.8 7.61806452,18.8090323 7.59548387,18.8090323 L4.68774194,18.8090323 Z" id="Shape" fill="#253B80"></path>
                            <path d="M14.8696774,4.94645161 C14.8516129,5.06193548 14.8309677,5.18 14.8077419,5.30129032 C14.0096774,9.39870968 11.2793548,10.8141935 7.79225806,10.8141935 L6.01677419,10.8141935 C5.59032258,10.8141935 5.23096774,11.123871 5.16451613,11.5445161 L4.25548387,17.3096774 L3.99806452,18.943871 C3.95483871,19.22 4.16774194,19.4690323 4.44645161,19.4690323 L7.59548387,19.4690323 C7.9683871,19.4690323 8.28516129,19.1980645 8.34387097,18.8303226 L8.37483871,18.6703226 L8.96774194,14.9077419 L9.00580645,14.7012903 C9.06387097,14.3322581 9.38129032,14.0612903 9.75419355,14.0612903 L10.2251613,14.0612903 C13.276129,14.0612903 15.6645161,12.8225806 16.3625806,9.23806452 C16.6541935,7.74064516 16.5032258,6.49032258 15.7316129,5.61096774 C15.4980645,5.34580645 15.2083871,5.12580645 14.8696774,4.94645161 Z" id="Shape" fill="#179BD7"></path>
                            <path d="M14.0348387,4.61354839 C13.9129032,4.57806452 13.7870968,4.54580645 13.6580645,4.51677419 C13.5283871,4.4883871 13.3954839,4.46322581 13.2587097,4.44129032 C12.78,4.36387097 12.2554839,4.32709677 11.6935484,4.32709677 L6.95032258,4.32709677 C6.83354839,4.32709677 6.72258065,4.35354839 6.62322581,4.40129032 C6.40451613,4.50645161 6.24193548,4.71354839 6.20258065,4.96709677 L5.19354839,11.3580645 L5.16451613,11.5445161 C5.23096774,11.123871 5.59032258,10.8141935 6.01677419,10.8141935 L7.79225806,10.8141935 C11.2793548,10.8141935 14.0096774,9.39806452 14.8077419,5.30129032 C14.8316129,5.18 14.8516129,5.06193548 14.8696774,4.94645161 C14.6677419,4.83935484 14.4490323,4.74774194 14.2135484,4.66967742 C14.1554839,4.65032258 14.0954839,4.6316129 14.0348387,4.61354839 Z" id="Shape" fill="#222D65"></path>
                            <path d="M6.20258065,4.96709677 C6.24193548,4.71354839 6.40451613,4.50645161 6.62322581,4.40193548 C6.72322581,4.35419355 6.83354839,4.32774194 6.95032258,4.32774194 L11.6935484,4.32774194 C12.2554839,4.32774194 12.78,4.36451613 13.2587097,4.44193548 C13.3954839,4.46387097 13.5283871,4.48903226 13.6580645,4.51741935 C13.7870968,4.54645161 13.9129032,4.57870968 14.0348387,4.61419355 C14.0954839,4.63225806 14.1554839,4.65096774 14.2141935,4.66967742 C14.4496774,4.74774194 14.6683871,4.84 14.8703226,4.94645161 C15.1077419,3.43225806 14.8683871,2.40129032 14.0496774,1.46774194 C13.1470968,0.44 11.5180645,0 9.43354839,0 L3.38193548,0 C2.95612903,0 2.59290323,0.309677419 2.52709677,0.730967742 L0.0064516129,16.7083871 C-0.0432258065,17.0245161 0.200645161,17.3096774 0.519354839,17.3096774 L4.25548387,17.3096774 L5.19354839,11.3580645 L6.20258065,4.96709677 Z" id="Shape" fill="#253B80"></path>
                        </g>
                    </g>
                </g>
            </g>
        </g>
    </g>
</svg>